# xmcd CD database file
#
# Track frame offsets:
#	150
#	26506
#	43399
#	69337
#	89540
#	111096
#	131097
#	141739
#	167324
#	186133
#
# Disc length: 2702 seconds
#
# Revision: 17
# Processed by: cddbd v1.5.2PL0 Copyright (c) Steve Scherf et al.
# Submitted via: CDex 1.77
#
DISCID=8f0a8c0a
DTITLE=Prince - Planet Earth
DYEAR=2007
DGENRE=R&B
TTITLE0=Planet Earth
TTITLE1=Guitar
TTITLE2=Somewhere Here on Earth
TTITLE3=The One U Wanna C
TTITLE4=Future Baby Mama
TTITLE5=Mr. Goodnight
TTITLE6=All the Midnights in the World
TTITLE7=Chelsea Rodgers
TTITLE8=Lion of Judah
TTITLE9=Resolution
EXTD=YEAR: 2007
EXTT0=
EXTT1=
EXTT2=
EXTT3=
EXTT4=
EXTT5=
EXTT6=
EXTT7=
EXTT8=
EXTT9=
PLAYORDER=
